<svg
   width="1.8rem"
   viewBox="0 0 101.40346 57.769404"
   version="1.1"
   inkscape:version="1.2.1 (9c6d41e410, 2022-07-14)"
   sodipodi:docname="243.svg"
   xml:space="preserve"
   xmlns:inkscape="http://www.inkscape.org/namespaces/inkscape"
   xmlns:sodipodi="http://sodipodi.sourceforge.net/DTD/sodipodi-0.dtd"
   xmlns="http://www.w3.org/2000/svg"
   xmlns:svg="http://www.w3.org/2000/svg"><sodipodi:namedview
     id="namedview7"
     pagecolor="#ffffff"
     bordercolor="#000000"
     borderopacity="0.25"
     inkscape:showpageshadow="2"
     inkscape:pageopacity="0.0"
     inkscape:pagecheckerboard="true"
     inkscape:deskcolor="#d1d1d1"
     inkscape:document-units="mm"
     showgrid="false"
     inkscape:zoom="12.8128"
     inkscape:cx="34.496753"
     inkscape:cy="14.633804"
     inkscape:window-width="1920"
     inkscape:window-height="1013"
     inkscape:window-x="-9"
     inkscape:window-y="-9"
     inkscape:window-maximized="1"
     inkscape:current-layer="layer1"
     inkscape:lockguides="true"
     shape-rendering="auto" /><defs
     id="defs2"><inkscape:path-effect
       effect="fillet_chamfer"
       id="path-effect9452"
       is_visible="true"
       lpeversion="1"
       nodesatellites_param="F,0,0,1,0,0,0,1 @ F,0,0,1,0,0,0,1 @ F,0,0,1,0,13.319202,0,1 @ F,0,0,1,0,13.112702,0,1"
       unit="px"
       method="auto"
       mode="F"
       radius="0"
       chamfer_steps="1"
       flexible="false"
       use_knot_distance="true"
       apply_no_radius="true"
       apply_with_radius="true"
       only_selected="false"
       hide_knots="false" /><inkscape:path-effect
       effect="fillet_chamfer"
       id="path-effect7827"
       is_visible="true"
       lpeversion="1"
       nodesatellites_param="IF,0,0,1,0,24.366911,0,5 @ IF,0,0,1,0,0,0,5 @ IF,0,0,1,0,0,0,5 @ IF,0,0,1,0,0,0,5"
       unit="px"
       method="auto"
       mode="IF"
       radius="0"
       chamfer_steps="4"
       flexible="false"
       use_knot_distance="true"
       apply_no_radius="true"
       apply_with_radius="true"
       only_selected="false"
       hide_knots="false" /><inkscape:path-effect
       effect="fillet_chamfer"
       id="path-effect3413"
       nodesatellites_param="IF,0,0,1,0,25.281841,0,1 @ IF,0,0,1,0,0,0,1 @ IF,0,0,1,0,0,0,1 @ IF,0,0,1,0,0,0,1"
       is_visible="true"
       lpeversion="1"
       unit="px"
       method="auto"
       mode="IF"
       radius="0"
       chamfer_steps="1"
       flexible="false"
       use_knot_distance="true"
       apply_no_radius="true"
       apply_with_radius="true"
       only_selected="false"
       hide_knots="false" /><inkscape:path-effect
       effect="fillet_chamfer"
       id="path-effect1107"
       is_visible="true"
       lpeversion="1"
       nodesatellites_param="IF,0,0,1,0,0,0,1 @ IF,0,0,1,0,0,0,1 @ IF,0,0,1,0,0,0,1 @ IF,0,0,1,0,33.926521,0,1"
       unit="px"
       method="auto"
       mode="IF"
       radius="0"
       chamfer_steps="1"
       flexible="false"
       use_knot_distance="true"
       apply_no_radius="true"
       apply_with_radius="true"
       only_selected="false"
       hide_knots="false" /><inkscape:path-effect
       effect="fillet_chamfer"
       id="path-effect3304"
       is_visible="true"
       lpeversion="1"
       nodesatellites_param="IF,0,0,1,0,36.469021,0,1 @ IF,0,0,1,0,0,0,1 @ IF,0,0,1,0,0,0,1 @ IF,0,0,1,0,0,0,1"
       unit="px"
       method="auto"
       mode="IF"
       radius="0"
       chamfer_steps="1"
       flexible="false"
       use_knot_distance="true"
       apply_no_radius="true"
       apply_with_radius="true"
       only_selected="false"
       hide_knots="false" /><inkscape:path-effect
       effect="fillet_chamfer"
       id="path-effect2317"
       is_visible="true"
       lpeversion="1"
       nodesatellites_param="IF,0,0,1,0,8.2101927,0,1 @ IF,0,0,1,0,0,0,1 @ IF,0,0,1,0,0,0,1 @ IF,0,0,1,0,0,0,1 @ IF,0,0,1,0,0,0,1"
       unit="px"
       method="auto"
       mode="IF"
       radius="0"
       chamfer_steps="1"
       flexible="false"
       use_knot_distance="true"
       apply_no_radius="true"
       apply_with_radius="true"
       only_selected="false"
       hide_knots="false" /><linearGradient
       id="linearGradient16417"
       inkscape:swatch="solid"><stop
         style="stop-color:#ffffff;stop-opacity:1;"
         offset="0"
         id="stop16415" /></linearGradient><inkscape:path-effect
       effect="fillet_chamfer"
       id="path-effect14407"
       is_visible="true"
       lpeversion="1"
       nodesatellites_param="IF,0,0,1,0,25.679276,0,1 @ IF,0,0,1,0,0,0,1 @ IF,0,0,1,0,0,0,1 @ IF,0,0,1,0,0,0,1"
       unit="px"
       method="auto"
       mode="IF"
       radius="0"
       chamfer_steps="1"
       flexible="false"
       use_knot_distance="true"
       apply_no_radius="true"
       apply_with_radius="true"
       only_selected="false"
       hide_knots="false" /><linearGradient
       id="linearGradient3641"
       inkscape:swatch="solid"><stop
         style="stop-color:#f18c29;stop-opacity:1;"
         offset="0"
         id="stop3639" /></linearGradient><style
       id="style10022">.cls-1{fill:#78ba31;}.cls-2{fill:#434343;}</style><style
       id="style13374">.cls-1{fill:#78ba31;}.cls-2{fill:#434343;}</style><style
       id="style14139">.cls-1{fill:#78ba31;}.cls-2{fill:#434343;}</style></defs><g
     inkscape:label="Layer 1"
     inkscape:groupmode="layer"
     id="layer1"
     transform="translate(-71.173264,-28.726225)"><g
       id="g13396"
       transform="matrix(2.6345568,0,0,2.1005921,53.892031,25.77708)"><path
         class="cls-1"
         d="m 16.94,2.46 a 3.72,3.72 0 0 1 0.27,1.35 4.78,4.78 0 0 1 -2.5,3.9 h 5.5 V 2.46 Z"
         id="path13380"
         style="fill:#f18c29;fill-opacity:1" /><rect
         class="cls-1"
         x="12.96"
         y="11.79"
         width="3.96"
         height="7.04"
         id="rect13382"
         style="fill:#f18c29;fill-opacity:1" /><rect
         class="cls-1"
         x="12.47"
         y="24.07"
         width="5.52"
         height="1.6799999"
         id="rect13384"
         style="fill:none" /><path
         class="cls-2"
         d="m 21.92,7.39 h -1.1 V 3.8 A 2.22,2.22 0 0 0 18.61,1.59 H 11.39 A 2.22,2.22 0 0 0 9.17,3.8 V 7.39 H 8.08 L 7.33,8.14 V 18.46 A 5.93,5.93 0 0 0 12,24.24 v 1.66 l 0.5,0.5 h 2 v 2.54 h 1 V 26.4 H 18 l 0.5,-0.5 v -1.78 a 5.93,5.93 0 0 0 4.18,-5.66 V 8.14 Z M 10.67,3.8 a 0.72,0.72 0 0 1 0.71,-0.71 h 1.12 v 2.27 h 1 V 3.09 h 3 v 2.27 h 1 V 3.09 h 1.11 a 0.72,0.72 0 0 1 0.71,0.71 v 3.59 h -8.65 z m 6.82,21.6 H 13 v -1 h 3.79 a 5.92,5.92 0 0 0 0.74,-0.05 z m 3.68,-6.94 a 4.43,4.43 0 0 1 -4.42,4.42 h -3.5 A 4.43,4.43 0 0 1 8.83,18.46 V 8.89 H 21.17 Z M 17,19.4 17.5,18.9 V 11.85 L 17,11.35 h -4 l -0.5,0.5 v 7.05 l 0.5,0.5 z m -3.55,-1 v -2.52 h 3.05 v 2.52 z m 3.05,-6.05 v 2.53 h -3.03 v -2.53 z"
         id="path13386"
         style="fill:#000000;fill-opacity:1;stroke-width:2.12542304;stroke-dasharray:none" /></g><g
       id="g14158"
       transform="matrix(2.1899301,0,0,2.4050066,112.40904,21.153098)"><path
         class="cls-1"
         d="m 21.79,4.4 a 14,14 0 0 1 -1,4.94 12.49,12.49 0 0 1 -4.34,5.85 l 3.57,0.41 v 0 A 5.6694995,5.6694995 0 0 0 21.79,4.4 Z"
         id="path14145"
         style="fill:#f18c29;fill-opacity:1" /><path
         class="cls-2"
         d="M 25.075938,5.0118251 A 6.9165256,6.5202112 0 0 0 19.71429,3.2326668 C 16.261389,3.4651704 4.8839725,4.8804101 1.4846878,5.3150908 H 1.4417946 L 0.79839687,6.0126017 v 7.5917503 l 0.63267443,0.687402 h 0.06434 l 4.0319591,0.576204 c 3.3671148,0.44479 6.2409576,0.7986 8.5035736,1.010886 v 0 a 1.1688392,1.1018652 0 0 1 0.632674,0.52566 c 0.84714,1.526438 -0.836417,5.327366 -1.490538,6.540429 a 2.7773336,2.6181933 0 0 0 -0.139403,2.193621 3.5815807,3.3763574 0 0 0 1.8873,1.647744 4.6860802,4.4175695 0 0 0 1.705004,0.343701 2.9274597,2.7597173 0 0 0 1.201009,-0.232504 c 1.447645,-0.61664 2.144659,-2.294709 2.79878,-4.043542 0.278806,-0.70762 0.557612,-1.425348 0.890034,-2.122859 a 50.163577,47.289222 0 0 1 2.670101,-4.599529 c 0.214465,-0.343701 0.396761,-0.657076 0.568334,-0.960341 A 12.138771,11.443224 0 0 1 25.429807,14.079468 8.1068115,7.642294 0 0 0 27.36,9.8135309 7.002312,6.601082 0 0 0 25.075938,5.0118251 Z m 0.87931,4.8017058 a 5.3616478,5.0544273 0 0 1 -1.640664,3.5987521 6.2945745,5.9338976 0 0 1 -4.396551,1.667961 h -0.08579 c -0.997267,0 -5.95143,-0.505442 -5.994323,-0.515551 -1.876576,-0.212286 -4.1499151,-0.485225 -6.7449526,-0.828926 h -0.09651 V 5.9620575 h 0.09651 C 11.703988,5.4060705 17.666141,4.7085595 19.885863,4.5569267 a 5.6726234,5.3475841 0 0 1 4.289318,1.4354574 5.5975603,5.2768221 0 0 1 1.780067,3.8211468 z M 14.513492,23.571682 c 0.954373,-1.738723 2.380572,-5.236387 1.672834,-7.288484 v -0.151633 h 0.160849 c 1.597771,0.151633 2.777334,0.232504 3.517241,0.242613 h 0.107233 a 7.763666,7.3188107 0 0 0 2.659378,-0.44479 l 0.278805,-0.10109 -0.150126,0.242613 a 45.874258,43.24568 0 0 0 -2.348402,4.104195 c -0.364592,0.748056 -0.654121,1.506219 -0.932926,2.213839 -0.589782,1.516329 -1.147393,2.951785 -2.069596,3.335922 a 2.359125,2.223948 0 0 1 -1.790791,-0.121305 c -1.211732,-0.485225 -1.511984,-1.1423 -1.104499,-2.03188 z M 5.8705157,6.0934726 V 13.584134 H 5.774006 L 2.3103815,13.0888 H 2.1924253 V 6.5483711 h 0.1179562 z"
         id="path14147"
         style="fill:#000000;fill-opacity:1;stroke-width:2.26836;stroke-dasharray:none" /><path
         class="cls-2"
         d="m 18.48,6.2 h -0.15 l 0.07,1.3 h 0.15 a 4.3,4.3 0 0 1 3.16,0.75 2.65,2.65 0 0 1 0.68,2 v 0.15 h 1.3 V 10.25 A 3.86,3.86 0 0 0 22.6,7.25 5.35,5.35 0 0 0 18.48,6.2 Z"
         id="path14149"
         style="fill:#000000;fill-opacity:1" /></g></g></svg>
