<svg
   width="1.8rem"
   viewBox="0 0 87.949423 58.998242"
   version="1.1"
   id="svg5"
   inkscape:version="1.2.1 (9c6d41e410, 2022-07-14)"
   sodipodi:docname="296.svg"
   xml:space="preserve"
   xmlns:inkscape="http://www.inkscape.org/namespaces/inkscape"
   xmlns:sodipodi="http://sodipodi.sourceforge.net/DTD/sodipodi-0.dtd"
   xmlns="http://www.w3.org/2000/svg"
   xmlns:svg="http://www.w3.org/2000/svg"><sodipodi:namedview
     id="namedview7"
     pagecolor="#ffffff"
     bordercolor="#000000"
     borderopacity="0.25"
     inkscape:showpageshadow="2"
     inkscape:pageopacity="0.0"
     inkscape:pagecheckerboard="true"
     inkscape:deskcolor="#d1d1d1"
     inkscape:document-units="mm"
     showgrid="false"
     inkscape:zoom="9.0600177"
     inkscape:cx="44.370774"
     inkscape:cy="6.7880662"
     inkscape:window-width="1920"
     inkscape:window-height="1013"
     inkscape:window-x="-9"
     inkscape:window-y="-9"
     inkscape:window-maximized="1"
     inkscape:current-layer="layer1"
     inkscape:lockguides="true"
     shape-rendering="auto" /><defs
     id="defs2"><inkscape:path-effect
       effect="fillet_chamfer"
       id="path-effect19920"
       nodesatellites_param="IF,0,0,1,0,0,0,1 @ IF,0,0,1,0,0,0,1 @ IF,0,0,1,0,0,0,1 @ IF,0,0,1,0,0,0,1 @ IF,0,0,1,0,0,0,1 @ IF,0,0,1,0,1.6762796,0,1 @ IF,0,0,1,0,0.74029593,0,1 @ IF,0,0,1,0,0.55187532,0,1 @ IF,0,0,1,0,3.214674,0,1 @ IF,0,0,1,0,0,0,1 @ IF,0,0,1,0,0,0,1 @ IF,0,0,1,0,0,0,1 @ IF,0,0,1,0,0,0,1 @ IF,0,0,1,0,0,0,1 @ IF,0,0,1,0,0,0,1 @ IF,0,0,1,0,0,0,1 @ IF,0,0,1,0,0,0,1 @ IF,0,0,1,0,0,0,1 @ IF,0,0,1,0,0,0,1 @ IF,0,0,1,0,0,0,1 @ IF,0,0,1,0,0,0,1 @ IF,0,0,1,0,0,0,1 @ IF,0,0,1,0,0,0,1 @ IF,0,0,1,0,0,0,1 @ IF,0,0,1,0,0,0,1 @ IF,0,0,1,0,0,0,1 @ IF,0,0,1,0,0,0,1 | IF,0,0,1,0,0,0,1 @ IF,0,0,1,0,0,0,1 @ IF,0,0,1,0,0,0,1 @ IF,0,0,1,0,0.055591647,0,1 | IF,0,0,1,0,0,0,1 @ IF,0,0,1,0,0,0,1 @ IF,0,0,1,0,0,0,1"
       is_visible="true"
       lpeversion="1"
       unit="px"
       method="auto"
       mode="IF"
       radius="0"
       chamfer_steps="1"
       flexible="false"
       use_knot_distance="true"
       apply_no_radius="true"
       apply_with_radius="true"
       only_selected="false"
       hide_knots="false" /><inkscape:path-effect
       effect="fillet_chamfer"
       id="path-effect9452"
       is_visible="true"
       lpeversion="1"
       nodesatellites_param="F,0,0,1,0,0,0,1 @ F,0,0,1,0,0,0,1 @ F,0,0,1,0,13.319202,0,1 @ F,0,0,1,0,13.112702,0,1"
       unit="px"
       method="auto"
       mode="F"
       radius="0"
       chamfer_steps="1"
       flexible="false"
       use_knot_distance="true"
       apply_no_radius="true"
       apply_with_radius="true"
       only_selected="false"
       hide_knots="false" /><inkscape:path-effect
       effect="fillet_chamfer"
       id="path-effect7827"
       is_visible="true"
       lpeversion="1"
       nodesatellites_param="IF,0,0,1,0,24.366911,0,5 @ IF,0,0,1,0,0,0,5 @ IF,0,0,1,0,0,0,5 @ IF,0,0,1,0,0,0,5"
       unit="px"
       method="auto"
       mode="IF"
       radius="0"
       chamfer_steps="4"
       flexible="false"
       use_knot_distance="true"
       apply_no_radius="true"
       apply_with_radius="true"
       only_selected="false"
       hide_knots="false" /><inkscape:path-effect
       effect="fillet_chamfer"
       id="path-effect3413"
       nodesatellites_param="IF,0,0,1,0,25.281841,0,1 @ IF,0,0,1,0,0,0,1 @ IF,0,0,1,0,0,0,1 @ IF,0,0,1,0,0,0,1"
       is_visible="true"
       lpeversion="1"
       unit="px"
       method="auto"
       mode="IF"
       radius="0"
       chamfer_steps="1"
       flexible="false"
       use_knot_distance="true"
       apply_no_radius="true"
       apply_with_radius="true"
       only_selected="false"
       hide_knots="false" /><inkscape:path-effect
       effect="fillet_chamfer"
       id="path-effect1107"
       is_visible="true"
       lpeversion="1"
       nodesatellites_param="IF,0,0,1,0,0,0,1 @ IF,0,0,1,0,0,0,1 @ IF,0,0,1,0,0,0,1 @ IF,0,0,1,0,33.926521,0,1"
       unit="px"
       method="auto"
       mode="IF"
       radius="0"
       chamfer_steps="1"
       flexible="false"
       use_knot_distance="true"
       apply_no_radius="true"
       apply_with_radius="true"
       only_selected="false"
       hide_knots="false" /><inkscape:path-effect
       effect="fillet_chamfer"
       id="path-effect3304"
       is_visible="true"
       lpeversion="1"
       nodesatellites_param="IF,0,0,1,0,36.469021,0,1 @ IF,0,0,1,0,0,0,1 @ IF,0,0,1,0,0,0,1 @ IF,0,0,1,0,0,0,1"
       unit="px"
       method="auto"
       mode="IF"
       radius="0"
       chamfer_steps="1"
       flexible="false"
       use_knot_distance="true"
       apply_no_radius="true"
       apply_with_radius="true"
       only_selected="false"
       hide_knots="false" /><inkscape:path-effect
       effect="fillet_chamfer"
       id="path-effect2317"
       is_visible="true"
       lpeversion="1"
       nodesatellites_param="IF,0,0,1,0,8.2101927,0,1 @ IF,0,0,1,0,0,0,1 @ IF,0,0,1,0,0,0,1 @ IF,0,0,1,0,0,0,1 @ IF,0,0,1,0,0,0,1"
       unit="px"
       method="auto"
       mode="IF"
       radius="0"
       chamfer_steps="1"
       flexible="false"
       use_knot_distance="true"
       apply_no_radius="true"
       apply_with_radius="true"
       only_selected="false"
       hide_knots="false" /><linearGradient
       id="linearGradient16417"
       inkscape:swatch="solid"><stop
         style="stop-color:#ffffff;stop-opacity:1;"
         offset="0"
         id="stop16415" /></linearGradient><inkscape:path-effect
       effect="fillet_chamfer"
       id="path-effect14407"
       is_visible="true"
       lpeversion="1"
       nodesatellites_param="IF,0,0,1,0,25.679276,0,1 @ IF,0,0,1,0,0,0,1 @ IF,0,0,1,0,0,0,1 @ IF,0,0,1,0,0,0,1"
       unit="px"
       method="auto"
       mode="IF"
       radius="0"
       chamfer_steps="1"
       flexible="false"
       use_knot_distance="true"
       apply_no_radius="true"
       apply_with_radius="true"
       only_selected="false"
       hide_knots="false" /><linearGradient
       id="linearGradient3641"
       inkscape:swatch="solid"><stop
         style="stop-color:#f18c29;stop-opacity:1;"
         offset="0"
         id="stop3639" /></linearGradient><style
       id="style10022">.cls-1{fill:#78ba31;}.cls-2{fill:#434343;}</style><style
       id="style13374">.cls-1{fill:#78ba31;}.cls-2{fill:#434343;}</style><style
       id="style14139">.cls-1{fill:#78ba31;}.cls-2{fill:#434343;}</style><style
       id="style19329">.cls-1{fill:#454545;}</style></defs><g
     inkscape:label="Layer 1"
     inkscape:groupmode="layer"
     id="layer1"
     transform="translate(-83.892712,-28.808121)"><g
       id="g19348"
       transform="matrix(4.1734772,0,0,2.4996645,73.51501,25.414745)"><path
         class="cls-1"
         d="m 15.838368,21.834824 c 0.279247,0.01004 0.513341,-0.217999 0.522647,-0.509119 0,-0.726461 -0.81257,-0.689568 -0.81257,0.0369 0.0093,0.291115 0.01068,0.482257 0.289923,0.472221 z"
         id="path19335"
         style="fill:#f18c29;fill-opacity:1;stroke-width:0.874805"
         sodipodi:nodetypes="cccc" /><ellipse
         class="cls-1"
         id="ellipse19337"
         style="fill:#f18c29;fill-opacity:1"
         ry="0.56999999"
         rx="0.40628484"
         cy="21.379999"
         cx="8.29" /><path
         class="cls-1"
         d="m 21,7.39 a 2,2 0 0 0 -0.65,1.53 v 0.39 h -8.3 V 2.11 L 11.3,1.36 H 10.24 A 7.56,7.56 0 0 0 2.49,8.7 v 1.35 c 0,0.13 0,0.26 0,0.4 a 6.15,6.15 0 0 0 5.9,6.35 h 0.4 l 2.14,1.26 -0.85,0.5 a 3.54,3.54 0 0 0 -1.69,-0.44 3.26,3.26 0 1 0 0,6.52 3.35,3.35 0 0 0 3.42,-3.26 3.16,3.16 0 0 0 -0.88,-2.16 l 1,-0.58 1.41,0.83 a 3.16,3.16 0 0 0 -0.66,1.91 3.42,3.42 0 1 0 3.42,-3.26 3.44,3.44 0 0 0 -2,0.64 L 12.92,18.06 15,16.8 h 1 a 6.12,6.12 0 0 0 5.88,-6.11 v 0 c 0,0 0,-0.39 0,-1.78 a 0.44,0.44 0 0 1 0.15,-0.4 2.16,2.16 0 0 1 1.36,-0.27 L 23.56,6.75 A 3.56,3.56 0 0 0 21,7.39 Z M 8.37,23.14 a 1.77,1.77 0 1 1 0,-3.52 1.77,1.77 0 1 1 0,3.52 z m 7.69,-3.52 a 1.77,1.77 0 1 1 -1.92,1.76 1.85,1.85 0 0 1 1.92,-1.76 z M 10.55,2.86 V 8.35 L 6.84,3.8 a 6.59,6.59 0 0 1 3.4,-0.94 z M 6,4.39 10.05,9.39 4,8.32 A 5.73,5.73 0 0 1 6,4.39 Z m -2,6.06 c 0,-0.1 0,-0.2 0,-0.39 V 9.33 l 6,1 -4.86,3.38 A 5.07,5.07 0 0 1 4,10.45 Z m 7.92,7 -1.16,-0.68 h 2.32 z M 16,15.3 H 8.37 a 4.07,4.07 0 0 1 -2.5,-0.88 l 5.35,-3.69 0.08,0.08 h 9 A 4.6,4.6 0 0 1 16,15.3 Z"
         id="path19339"
         style="fill:#000000;fill-opacity:1" /></g><path
       style="fill:#f18c29;fill-opacity:1;stroke:none;stroke-width:0.294981;stroke-linecap:square;stroke-linejoin:round;stroke-dasharray:none;stroke-opacity:1;paint-order:stroke markers fill"
       d="m 61.383929,20.535905 v -2.585106 h 1.725895 1.725894 l -0.05546,0.370723 c -0.259215,1.732646 -1.228887,3.129032 -3.259745,4.694224 -0.129448,0.09977 -0.136582,-0.02977 -0.136582,-2.479841 z"
       id="path19833"
       transform="matrix(1.3229167,0,0,1.3229167,71.173264,28.726225)" /><path
       style="fill:#f18c29;fill-opacity:1;stroke:none;stroke-width:0.294981;stroke-linecap:square;stroke-linejoin:round;stroke-dasharray:none;stroke-opacity:1;paint-order:stroke markers fill"
       d="m 46.828172,25.987054 c 0.815591,-0.213031 1.977442,-0.48917 2.581891,-0.613643 1.139376,-0.234629 1.423481,-0.348236 2.521493,-1.00828 0.718505,-0.431913 1.019739,-0.774414 1.569313,-1.784293 0.182764,-0.335841 0.573693,-0.999504 0.86873,-1.474805 l 0.536433,-0.864184 v -1.145525 -1.145525 h 3.236886 3.236886 l 0.02157,2.572533 0.02157,2.572533 -0.780469,0.469758 c -2.164692,1.302911 -4.932736,2.177821 -8.312001,2.627216 -0.724904,0.0964 -1.74769,0.136395 -3.980394,0.155642 l -3.004808,0.0259 z"
       id="path19900"
       transform="matrix(1.3229167,0,0,1.3229167,71.173264,28.726225)" /><path
       style="fill:#f18c29;fill-opacity:1;stroke:none;stroke-width:0.104291;stroke-linecap:square;stroke-linejoin:round;stroke-dasharray:none;stroke-opacity:1;paint-order:stroke markers fill"
       d="m 45.557306,26.339321 c 0.02527,-0.01187 0.611578,-0.166239 1.559048,-0.410475 0.585442,-0.150914 1.382107,-0.338901 2.192813,-0.517432 1.198595,-0.263953 1.524263,-0.384105 2.346361,-0.865673 0.534193,-0.312919 0.725202,-0.448456 0.98317,-0.697641 0.290129,-0.280252 0.446671,-0.509004 0.949011,-1.386775 0.362389,-0.633226 0.907429,-1.53987 1.258555,-2.093538 l 0.07913,-0.124768 V 19.10328 17.963541 h 3.214674 c 1.76807,0 3.216768,0.0031 3.219328,0.0069 0.0026,0.0038 0.01243,0.590507 0.02193,1.303806 l 0.01727,1.296907 0.0057,-1.303806 0.0057,-1.303805 h 1.706172 1.706172 l -0.05116,0.321658 c -0.170397,1.07128 -0.564865,1.949678 -1.280598,2.851625 -0.277185,0.349301 -1.100542,1.155935 -1.563604,1.531846 -0.224076,0.181903 -0.422751,0.330733 -0.4415,0.330733 -0.01875,0 -0.04177,-0.04346 -0.05115,-0.09658 -0.01527,-0.08643 -0.01745,-0.08165 -0.0207,0.04541 l -0.0036,0.141989 -0.586368,0.349731 c -2.152326,1.283727 -4.424338,2.070699 -7.44455,2.57862 -1.129696,0.189985 -1.604423,0.236516 -2.827229,0.277118 -0.860931,0.02859 -5.040157,0.06509 -4.994471,0.04363 z m 15.843299,-5.623302 c -0.0077,-0.01897 -0.01392,-0.0034 -0.01392,0.03449 0,0.03794 0.0063,0.05346 0.01392,0.03449 0.0077,-0.01897 0.0077,-0.05001 0,-0.06898 z"
       id="path19902"
       transform="matrix(1.3229167,0,0,1.3229167,71.173264,28.726225)" /><path
       style="fill:#f18c29;fill-opacity:1;stroke:none;stroke-width:0.104291;stroke-linecap:square;stroke-linejoin:round;stroke-dasharray:none;stroke-opacity:1;paint-order:stroke markers fill"
       d="m 45.557306,26.338681 c 0.125573,-0.06191 2.437543,-0.63523 3.678821,-0.912267 0.505694,-0.112865 1.056464,-0.250725 1.223932,-0.306356 0.510428,-0.169559 1.498532,-0.708402 1.931514,-1.053313 0.424429,-0.338097 0.631378,-0.616705 1.202753,-1.619217 0.355768,-0.624217 0.561502,-0.968918 1.030715,-1.726932 l 0.300348,-0.485212 v -1.135921 -1.135922 h 3.211775 3.211776 l 0.01311,0.117274 c 0.0072,0.0645 0.0151,0.451876 0.01752,0.860835 0.0024,0.408959 0.01025,0.749397 0.01738,0.756529 0.0071,0.0071 0.01297,-0.380244 0.01297,-0.860835 v -0.873803 h 1.706172 1.706172 l -0.05116,0.321658 c -0.166482,1.046665 -0.519821,1.854013 -1.205757,2.755047 -0.36049,0.473534 -1.214953,1.302843 -1.888136,1.832553 -0.191759,0.150889 -0.224992,0.154923 -0.247398,0.03003 -0.0072,-0.04025 -0.01394,-0.01566 -0.01613,0.05901 l -0.0038,0.127991 -0.558774,0.332131 c -0.685448,0.407426 -1.005944,0.580026 -1.59354,0.858184 -1.665794,0.788558 -3.657733,1.374828 -5.954865,1.752643 -1.078816,0.177436 -1.55914,0.223341 -2.750968,0.262914 -0.875799,0.02908 -5.03894,0.06491 -4.994471,0.04299 z"
       id="path19904"
       transform="matrix(1.3229167,0,0,1.3229167,71.173264,28.726225)" /><path
       style="fill:#f18c29;fill-opacity:1;stroke:none;stroke-width:0.104291;stroke-linecap:square;stroke-linejoin:round;stroke-dasharray:none;stroke-opacity:1;paint-order:stroke markers fill"
       d="m 45.545809,26.340762 c 0.04108,-0.04032 2.65546,-0.688209 3.741599,-0.927237 1.044521,-0.229868 1.281514,-0.304037 1.795497,-0.561914 0.642742,-0.322479 1.225659,-0.692773 1.511521,-0.960183 0.320243,-0.299571 0.430846,-0.464612 1.198794,-1.788822 0.171626,-0.295943 0.496575,-0.837552 0.722108,-1.203574 l 0.410061,-0.665496 v -1.134998 -1.134997 h 3.214674 c 1.76807,0 3.216494,0.0031 3.218718,0.0069 0.0022,0.0038 0.01226,0.342163 0.0223,0.751931 l 0.01826,0.745031 0.0053,-0.75193 0.0053,-0.75193 h 1.706992 1.706992 l -0.03751,0.241445 c -0.178558,1.149288 -0.575729,2.041578 -1.317284,2.959432 -0.36809,0.4556 -1.166241,1.220137 -1.750571,1.676848 -0.22652,0.177047 -0.26224,0.186363 -0.288941,0.07536 -0.0073,-0.03035 -0.01472,-0.0035 -0.01647,0.05963 l -0.0032,0.11482 -0.462196,0.274136 c -1.124643,0.667044 -1.615669,0.914649 -2.614509,1.318389 -2.025271,0.818634 -4.899165,1.463531 -7.064004,1.58515 -0.888011,0.04989 -5.763367,0.11123 -5.723406,0.07201 z"
       id="path19906"
       transform="matrix(1.3229167,0,0,1.3229167,71.173264,28.726225)" /><path
       style="fill:#f18c29;fill-opacity:1;stroke:none;stroke-width:0.104291;stroke-linecap:square;stroke-linejoin:round;stroke-dasharray:none;stroke-opacity:1;paint-order:stroke markers fill"
       d="m 45.543509,26.344424 c 0.03902,-0.0425 2.373229,-0.625077 3.614783,-0.902182 1.417883,-0.316459 1.673136,-0.4112 2.608874,-0.968325 0.865631,-0.515384 1.090196,-0.756253 1.709976,-1.834129 0.38195,-0.664259 0.57283,-0.984182 1.038574,-1.740695 l 0.409673,-0.665434 V 19.0986 17.963541 h 3.214674 c 1.76807,0 3.216324,0.0093 3.218343,0.02069 0.002,0.01138 0.01217,0.262831 0.02255,0.558774 l 0.01888,0.538078 0.005,-0.558773 0.005,-0.558774 h 1.706992 1.706992 l -0.03757,0.241445 c -0.175694,1.12912 -0.564532,2.015615 -1.273871,2.904244 -0.400622,0.501881 -1.243781,1.311999 -1.847312,1.774923 -0.170366,0.130674 -0.223912,0.142592 -0.231553,0.05154 -0.0022,-0.02566 -0.01147,0.0015 -0.0207,0.06043 -0.01659,0.105882 -0.02284,0.110669 -0.552567,0.423103 -0.713287,0.420698 -1.204141,0.68468 -1.671714,0.899048 -1.874767,0.859522 -4.020362,1.45618 -6.512129,1.810925 -0.714466,0.101716 -1.101355,0.132007 -2.12472,0.166353 -0.928035,0.03115 -5.02873,0.07116 -5.008268,0.04887 z"
       id="path19908"
       transform="matrix(1.3229167,0,0,1.3229167,71.173264,28.726225)" /><path
       style="fill:#f18c29;fill-opacity:1;stroke:none;stroke-width:0.104291;stroke-linecap:square;stroke-linejoin:round;stroke-dasharray:none;stroke-opacity:1;paint-order:stroke markers fill"
       d="m 61.380433,18.129104 c -0.01528,-0.152089 -0.01139,-0.188053 0.01724,-0.159416 0.0084,0.0084 0.01144,0.08191 0.0067,0.163263 l -0.0087,0.147918 z"
       id="path19910"
       transform="matrix(1.3229167,0,0,1.3229167,71.173264,28.726225)" /><path
       style="fill:#f18c29;fill-opacity:1;stroke:none;stroke-width:0.137968;stroke-linecap:square;stroke-linejoin:round;stroke-dasharray:none;stroke-opacity:1;paint-order:stroke markers fill"
       d="m 132.59167,63.869706 c 0.0498,-0.05481 3.5504,-0.928771 4.86914,-1.215634 1.26628,-0.275455 1.70848,-0.407637 2.30394,-0.688694 0.89978,-0.424692 1.80205,-1.001587 2.22299,-1.421341 0.37417,-0.373112 0.60311,-0.711263 1.30044,-1.92083 0.0795,-0.137891 0.17273,-0.297603 0.27279,-0.467533 0.48646,-0.787658 1.13356,-1.849533 1.44214,-2.373584 v -0.947906 a 2.3698793,2.3698793 163.57086 0 0 3.21467,-2.051657 h 1.03808 c 4.02568,0 4.25278,0.0034 4.2533,0.06388 3e-4,0.03514 0.0162,0.08853 0.0354,0.118639 0.0259,0.04079 0.0328,0.02683 0.0268,-0.05476 l -0.008,-0.109511 2.27154,-0.0094 2.27153,-0.0094 -0.0181,0.100661 c -0.01,0.05536 -0.059,0.326964 -0.10903,0.603556 -0.2244,1.24144 -0.75761,2.382285 -1.61615,3.457818 -0.5315,0.665847 -1.64528,1.735531 -2.44898,2.35203 -0.22051,0.169148 -0.23603,0.175244 -0.28291,0.111125 -0.0457,-0.06248 -0.0496,-0.0588 -0.0496,0.04641 0,0.107699 -0.0277,0.130784 -0.48368,0.40314 -0.26603,0.158894 -0.63974,0.379268 -0.83048,0.489719 -2.46269,1.426119 -5.54898,2.460378 -9.18081,3.076614 -1.4958,0.2538 -2.19964,0.32429 -3.8147,0.382045 -1.15069,0.04114 -6.70779,0.09489 -6.68028,0.06461 z m 20.97838,-10.0354 c -0.0117,-0.02912 -0.0203,-0.02047 -0.0221,0.02205 -0.002,0.03848 0.007,0.06005 0.0192,0.04792 0.004,-0.0037 0.006,-0.0092 0.008,-0.01578 -0.0301,0 -0.005,-0.05414 -0.005,-0.05419 z m 0.002,-0.622853 c -0.007,-0.10541 -0.0134,-0.01917 -0.0134,0.191647 0,0.210812 0.006,0.297053 0.0134,0.191647 0.007,-0.10541 0.007,-0.277888 0,-0.383294 z"
       id="path19916"
       inkscape:path-effect="#path-effect19920"
       inkscape:original-d="m 132.59167,63.869706 c 0.0498,-0.05481 3.5504,-0.928771 4.86914,-1.215634 1.26628,-0.275455 1.70848,-0.407637 2.30394,-0.688694 0.89978,-0.424692 1.80205,-1.001587 2.22299,-1.421341 0.37417,-0.373112 0.60311,-0.711263 1.30044,-1.92083 0.30673,-0.532049 0.81808,-1.388956 1.13632,-1.904239 l 0.57861,-0.936878 v -1.499781 -1.499782 h 4.25275 c 4.02568,0 4.25278,0.0034 4.2533,0.06388 3e-4,0.03514 0.0162,0.08853 0.0354,0.118639 0.0259,0.04079 0.0328,0.02683 0.0268,-0.05476 l -0.008,-0.109511 2.27154,-0.0094 2.27153,-0.0094 -0.0181,0.100661 c -0.01,0.05536 -0.059,0.326964 -0.10903,0.603556 -0.2244,1.24144 -0.75761,2.382285 -1.61615,3.457818 -0.5315,0.665847 -1.64528,1.735531 -2.44898,2.35203 -0.22051,0.169148 -0.23603,0.175244 -0.28291,0.111125 -0.0457,-0.06248 -0.0496,-0.0588 -0.0496,0.04641 0,0.107699 -0.0277,0.130784 -0.48368,0.40314 -0.26603,0.158894 -0.63974,0.379268 -0.83048,0.489719 -2.46269,1.426119 -5.54898,2.460378 -9.18081,3.076614 -1.4958,0.2538 -2.19964,0.32429 -3.8147,0.382045 -1.15069,0.04114 -6.70779,0.09489 -6.68028,0.06461 z m 20.97838,-10.0354 c -0.0117,-0.02912 -0.0203,-0.02047 -0.0221,0.02205 -0.002,0.03848 0.007,0.06005 0.0192,0.04792 0.0122,-0.01217 0.0134,-0.04362 0.003,-0.06997 z m 0.002,-0.622853 c -0.007,-0.10541 -0.0134,-0.01917 -0.0134,0.191647 0,0.210812 0.006,0.297053 0.0134,0.191647 0.007,-0.10541 0.007,-0.277888 0,-0.383294 z" /></g></svg>
