<?xml version="1.0" encoding="UTF-8" standalone="no"?>
<svg
   width="1.8rem"
   viewBox="0 0 101.40346 57.769404"
   version="1.1"
   inkscape:version="1.2.1 (9c6d41e410, 2022-07-14)"
   sodipodi:docname="323.svg"
   id="svg707"
   xml:space="preserve"
   inkscape:export-filename="323.png"
   inkscape:export-xdpi="96"
   inkscape:export-ydpi="96"
   xmlns:inkscape="http://www.inkscape.org/namespaces/inkscape"
   xmlns:sodipodi="http://sodipodi.sourceforge.net/DTD/sodipodi-0.dtd"
   xmlns="http://www.w3.org/2000/svg"
   xmlns:svg="http://www.w3.org/2000/svg"><sodipodi:namedview
     id="namedview7"
     pagecolor="#ffffff"
     bordercolor="#000000"
     borderopacity="0.25"
     inkscape:showpageshadow="2"
     inkscape:pageopacity="0.0"
     inkscape:pagecheckerboard="true"
     inkscape:deskcolor="#d1d1d1"
     inkscape:document-units="mm"
     showgrid="false"
     inkscape:zoom="8.3251305"
     inkscape:cx="56.035158"
     inkscape:cy="32.852338"
     inkscape:window-width="1920"
     inkscape:window-height="1013"
     inkscape:window-x="-9"
     inkscape:window-y="-9"
     inkscape:window-maximized="1"
     inkscape:current-layer="layer1"
     inkscape:lockguides="true"
     shape-rendering="auto" /><defs
     id="defs2"><inkscape:path-effect
       effect="fillet_chamfer"
       id="path-effect3304"
       is_visible="true"
       lpeversion="1"
       nodesatellites_param="IF,0,0,1,0,36.469021,0,1 @ IF,0,0,1,0,0,0,1 @ IF,0,0,1,0,0,0,1 @ IF,0,0,1,0,0,0,1"
       unit="px"
       method="auto"
       mode="IF"
       radius="0"
       chamfer_steps="1"
       flexible="false"
       use_knot_distance="true"
       apply_no_radius="true"
       apply_with_radius="true"
       only_selected="false"
       hide_knots="false" /><inkscape:path-effect
       effect="fillet_chamfer"
       id="path-effect2317"
       is_visible="true"
       lpeversion="1"
       nodesatellites_param="IF,0,0,1,0,8.2101927,0,1 @ IF,0,0,1,0,0,0,1 @ IF,0,0,1,0,0,0,1 @ IF,0,0,1,0,0,0,1 @ IF,0,0,1,0,0,0,1"
       unit="px"
       method="auto"
       mode="IF"
       radius="0"
       chamfer_steps="1"
       flexible="false"
       use_knot_distance="true"
       apply_no_radius="true"
       apply_with_radius="true"
       only_selected="false"
       hide_knots="false" /><linearGradient
       id="linearGradient16417"
       inkscape:swatch="solid"><stop
         style="stop-color:#ffffff;stop-opacity:1;"
         offset="0"
         id="stop16415" /></linearGradient><inkscape:path-effect
       effect="fillet_chamfer"
       id="path-effect14407"
       is_visible="true"
       lpeversion="1"
       nodesatellites_param="IF,0,0,1,0,25.679276,0,1 @ IF,0,0,1,0,0,0,1 @ IF,0,0,1,0,0,0,1 @ IF,0,0,1,0,0,0,1"
       unit="px"
       method="auto"
       mode="IF"
       radius="0"
       chamfer_steps="1"
       flexible="false"
       use_knot_distance="true"
       apply_no_radius="true"
       apply_with_radius="true"
       only_selected="false"
       hide_knots="false" /><linearGradient
       id="linearGradient3641"
       inkscape:swatch="solid"><stop
         style="stop-color:#f18c29;stop-opacity:1;"
         offset="0"
         id="stop3639" /></linearGradient><style
       id="style1973">.cls-1{fill:#78ba31;}.cls-2{fill:#434343;}</style><style
       id="style3468">.cls-1{fill:#78ba31;}.cls-2{fill:#434343;}</style></defs><g
     inkscape:label="Layer 1"
     inkscape:groupmode="layer"
     id="layer1"
     transform="translate(-71.173264,-28.726225)"><g
       id="g1995"
       transform="matrix(1.9719367,0,0,2.4698882,70.872586,17.244338)"><path
         class="cls-2"
         d="M 22.63,8.06 22.13,7.35 19,6.22 V 5.45 L 18.25,4.7 H 3.66 L 2.91,5.45 v 8.62 l 0.75,0.75 H 5.23 L 4.14,17.16 2,21.49 H 1.09 l -0.75,0.75 v 5 l 0.75,0.75 h 14.2 l 0.75,-0.75 v -5 l -0.75,-0.75 h -3.6 l 1.81,-3.69 1.39,-3 h 3.34 l 0.75,-0.75 v -1.21 l 3.15,-1.13 0.5,-0.71 v -0.72 h 7 v -1.5 h -7 z M 4.41,13.32 V 6.2 h 1.68 v 7.12 z M 14.54,23 v 3.55 H 1.84 V 23 Z M 10,21.49 H 3.68 l 1.81,-3.69 1.39,-3 h 6.35 z M 17.48,6.75 v 6.58 H 7.09 V 6.2 H 17.48 Z M 21.12,10.48 19,11.25 V 7.81 l 2.14,0.77 z"
         id="path1981" /><circle
         class="cls-2"
         cx="12.76"
         cy="24.74"
         r="0.55000001"
         id="circle1983" /></g><g
       id="Layer_1"
       data-name="Layer 1"
       transform="matrix(-2.2053679,0,0,2.2756163,182.17082,23.856291)"><path
         class="cls-2"
         d="m 23.333399,15.24 h -10.24 V 11 c 0,-1 3.31,-2.05 5.73,-2.84 l 1.9,-0.63 c 2.79,-1 3.7,-2.72 3.35,-4 a 1.68,1.68 0 0 0 -1.91,-1.34 c -0.11,0 -12.2100001,2.22 -15.3700001,3.4 -1.78,0.65 -2.58,2.13 -2.39,4.41 a 9,9 0 0 0 0.18,1.46 v 0.25 0 15.04 l 0.75,0.75 h 7.0000001 l 0.75,-0.75 v -5.29 h 8.42 V 23 l 0.5,0.5 h 4.34 l 0.5,-0.5 v -1.54 h 0.5 l 0.75,-0.75 V 20 a 4.78,4.78 0 0 0 -4.76,-4.76 z m -11.74,-1.33 V 26 H 6.0833989 V 13.9 h 5.5100001 z m 0,-2.91 v 1.9 H 6.0833989 v -1.22 0 a 2.25,2.25 0 0 0 0,-0.59 7,7 0 0 1 -0.14,-1.25 c -0.18,-1.58 0.22,-2.43 1.35,-2.84 C 10.063399,6 20.873399,3.94 22.403399,3.67 c 0.11,0 0.18,0.05 0.22,0.19 0.14,0.53 -0.39,1.57 -2.39,2.25 l -1.87,0.63 c -3.78,1.26 -6.77,2.26 -6.77,4.26 z m 14.26,11.45 h -3.34 v -1 h 3.34 z m -12.76,-2.45 v -3.26 h 10.24 a 3.28,3.28 0 0 1 3.27,3.26 z"
         id="path3478" /></g><path
       style="fill:#f18c29;stroke:#000000;stroke-width:0.0839882;stroke-linecap:round;paint-order:markers fill stroke"
       d="m 79.6416,41.458758 v -8.768631 h 1.561537 1.561537 v 8.768631 8.768631 H 81.203137 79.6416 Z"
       id="path3925" /><path
       style="fill:#f18c29;stroke:#000000;stroke-width:0.0839882;stroke-linecap:round;paint-order:markers fill stroke"
       d="m 89.13094,82.730204 c 0,-0.02708 0.380437,-0.554094 0.845414,-1.171153 1.28014,-1.698837 2.670533,-4.668371 3.23897,-6.91763 l 0.129014,-0.510502 h 3.058386 3.058385 v 4.324256 4.324257 h -5.165084 c -2.840797,0 -5.165085,-0.02215 -5.165085,-0.04923 z m 7.570538,-3.298692 c 0.404825,-0.404825 0.533245,-0.82109 0.427388,-1.385355 -0.32311,-1.722323 -2.346345,-1.296394 -2.19431,0.461943 0.0414,0.478798 0.124284,0.658657 0.428995,0.930917 0.484626,0.433013 0.899738,0.430685 1.337927,-0.0075 z"
       id="path3927" /><path
       style="fill:#f18c29;stroke:#000000;stroke-width:0.0839882;stroke-linecap:round;paint-order:markers fill stroke"
       d="m 123.60489,68.750835 c 0,-0.690884 0.31499,-1.786269 0.8017,-2.787956 0.59059,-1.215469 1.9166,-2.556931 3.13174,-3.168243 1.18706,-0.597182 2.10848,-0.79177 3.75922,-0.793884 l 1.38645,-0.0018 0.47215,1.051034 c 0.96626,2.150923 2.68626,4.263567 4.51909,5.550711 l 0.86199,0.605349 h -7.46617 -7.46617 z"
       id="path3929" /><path
       style="fill:#f18c29;stroke:#000000;stroke-width:0.0839882;stroke-linecap:round;paint-order:markers fill stroke"
       d="m 125.16641,73.890682 v -1.081064 h 3.66361 3.66361 v 1.081064 1.081064 h -3.66361 -3.66361 z"
       id="path3931" /><path
       style="fill:#f18c29;stroke:#000000;stroke-width:0.0839882;stroke-linecap:round;paint-order:markers fill stroke"
       d="m 156.63739,76.401943 v -6.617725 l 0.71805,0.950975 c 1.5199,2.012954 4.08117,4.168377 6.2415,5.252485 1.14946,0.576827 2.92612,1.213808 4.0613,1.456084 l 0.99098,0.211498 v 2.682204 2.682204 h -6.00592 -6.00591 z"
       id="path3933" /></g></svg>
