<?xml version="1.0" encoding="UTF-8" standalone="no"?>
<svg
   width="1.8rem"
   viewBox="0 0 101.40346 57.769404"
   version="1.1"
   inkscape:version="1.2.1 (9c6d41e410, 2022-07-14)"
   sodipodi:docname="324.svg"
   id="svg707"
   xml:space="preserve"
   inkscape:export-filename="324.png"
   inkscape:export-xdpi="96"
   inkscape:export-ydpi="96"
   xmlns:inkscape="http://www.inkscape.org/namespaces/inkscape"
   xmlns:sodipodi="http://sodipodi.sourceforge.net/DTD/sodipodi-0.dtd"
   xmlns="http://www.w3.org/2000/svg"
   xmlns:svg="http://www.w3.org/2000/svg"><sodipodi:namedview
     id="namedview7"
     pagecolor="#ffffff"
     bordercolor="#000000"
     borderopacity="0.25"
     inkscape:showpageshadow="2"
     inkscape:pageopacity="0.0"
     inkscape:pagecheckerboard="true"
     inkscape:deskcolor="#d1d1d1"
     inkscape:document-units="mm"
     showgrid="false"
     inkscape:zoom="8.3251305"
     inkscape:cx="63.722725"
     inkscape:cy="30.810328"
     inkscape:window-width="1920"
     inkscape:window-height="1013"
     inkscape:window-x="-9"
     inkscape:window-y="-9"
     inkscape:window-maximized="1"
     inkscape:current-layer="layer1"
     inkscape:lockguides="true"
     shape-rendering="auto" /><defs
     id="defs2"><inkscape:path-effect
       effect="fillet_chamfer"
       id="path-effect3304"
       is_visible="true"
       lpeversion="1"
       nodesatellites_param="IF,0,0,1,0,36.469021,0,1 @ IF,0,0,1,0,0,0,1 @ IF,0,0,1,0,0,0,1 @ IF,0,0,1,0,0,0,1"
       unit="px"
       method="auto"
       mode="IF"
       radius="0"
       chamfer_steps="1"
       flexible="false"
       use_knot_distance="true"
       apply_no_radius="true"
       apply_with_radius="true"
       only_selected="false"
       hide_knots="false" /><inkscape:path-effect
       effect="fillet_chamfer"
       id="path-effect2317"
       is_visible="true"
       lpeversion="1"
       nodesatellites_param="IF,0,0,1,0,8.2101927,0,1 @ IF,0,0,1,0,0,0,1 @ IF,0,0,1,0,0,0,1 @ IF,0,0,1,0,0,0,1 @ IF,0,0,1,0,0,0,1"
       unit="px"
       method="auto"
       mode="IF"
       radius="0"
       chamfer_steps="1"
       flexible="false"
       use_knot_distance="true"
       apply_no_radius="true"
       apply_with_radius="true"
       only_selected="false"
       hide_knots="false" /><linearGradient
       id="linearGradient16417"
       inkscape:swatch="solid"><stop
         style="stop-color:#ffffff;stop-opacity:1;"
         offset="0"
         id="stop16415" /></linearGradient><inkscape:path-effect
       effect="fillet_chamfer"
       id="path-effect14407"
       is_visible="true"
       lpeversion="1"
       nodesatellites_param="IF,0,0,1,0,25.679276,0,1 @ IF,0,0,1,0,0,0,1 @ IF,0,0,1,0,0,0,1 @ IF,0,0,1,0,0,0,1"
       unit="px"
       method="auto"
       mode="IF"
       radius="0"
       chamfer_steps="1"
       flexible="false"
       use_knot_distance="true"
       apply_no_radius="true"
       apply_with_radius="true"
       only_selected="false"
       hide_knots="false" /><linearGradient
       id="linearGradient3641"
       inkscape:swatch="solid"><stop
         style="stop-color:#f18c29;stop-opacity:1;"
         offset="0"
         id="stop3639" /></linearGradient><style
       id="style1973">.cls-1{fill:#78ba31;}.cls-2{fill:#434343;}</style><style
       id="style3468">.cls-1{fill:#78ba31;}.cls-2{fill:#434343;}</style></defs><g
     inkscape:label="Layer 1"
     inkscape:groupmode="layer"
     id="layer1"
     transform="translate(-71.173264,-28.726225)"><g
       id="g371"
       transform="matrix(0.15861175,0,0,0.1383455,66.675385,22.56289)"
       style="stroke:#000000;stroke-opacity:1"><g
         id="g355"
         style="stroke:#000000;stroke-opacity:1">
	
</g><g
         id="g359"
         style="stroke:#000000;stroke-opacity:1">
	<path
   class="st0"
   d="M 606.78394,159.18884 589.41639,183.06946 523.51611,78.57043 C 517.15515,68.48394 506.48629,61.90722 494.6174,60.75634 h -3.7e-4 c -47.90942,-4.64587 -95.9884,-6.95587 -144.06653,-6.93701 -48.07825,-0.01886 -96.15709,2.29114 -144.06676,6.93701 h -1.2e-4 c -11.86902,1.15088 -22.53796,7.7276 -28.8988,17.81409 L 111.68467,183.06945 94.317,159.18884 c 0,0 -124.79425,16.5072 -9.76929,44.50482 l -24.96619,47.76117 v 193.20721 c 0,5.99976 4.86389,10.86353 10.8634,10.86353 h 96.5907 c 5.99988,0 10.86353,-4.86377 10.86353,-10.86353 V 428.3886 l 172.06725,2.1709 0.58411,-0.007 0.58398,0.007 172.06729,-2.1709 v 16.27344 c 0,5.99976 4.86365,10.86353 10.86365,10.86353 h 96.5907 c 5.99939,0 10.86328,-4.86377 10.86328,-10.86353 V 251.45483 l -24.96619,-47.76117 c 115.02503,-27.99762 -9.76928,-44.50482 -9.76928,-44.50482 z M 133.39439,400.16595 c -10.79089,0 -19.5387,-8.74768 -19.5387,-19.5387 0,-10.79089 8.7478,-19.53857 19.5387,-19.53857 10.79102,0 19.53882,8.74768 19.53882,19.53857 0,10.79102 -8.7478,19.5387 -19.53882,19.5387 z m 95.52246,-105.83447 c -62.95801,26.59424 -130.80066,-3.25659 -130.80066,-3.25659 -12.48303,-16.82483 -8.68396,-38.53455 -8.68396,-38.53455 100.94996,3.7992 141.98438,40.73511 139.48462,41.79114 z m 230.43407,20.13599 -13.25244,40.13647 c -3.57642,10.8324 -12.53516,17.98401 -22.52783,17.98401 h -73.02014 -73.02014 c -9.99292,0 -18.95142,-7.15161 -22.52794,-17.98401 l -13.25232,-40.13647 c -1.44971,-4.39087 1.34253,-9.10522 5.39331,-9.10522 h 103.40709 103.4071 c 4.05066,-1e-5 6.8429,4.71435 5.39331,9.10522 z m 108.35562,85.69848 c -10.79089,0 -19.53857,-8.74768 -19.53857,-19.5387 0,-10.79089 8.74768,-19.53857 19.53857,-19.53857 10.79102,0 19.5387,8.74768 19.5387,19.53857 0,10.79102 -8.74768,19.5387 -19.5387,19.5387 z m 35.2782,-109.09106 c 0,0 -67.84253,29.85083 -130.80057,3.25659 -2.49988,-1.05603 38.53455,-37.99194 139.48441,-41.79114 0,0 3.79932,21.70972 -8.68384,38.53455 z"
   id="path357"
   style="stroke:#000000;stroke-opacity:1" />
</g></g><path
       style="fill:#f18c29;fill-opacity:1;stroke:#ffffff;stroke-width:0;stroke-linecap:round;paint-order:markers fill stroke"
       d="m 97.719394,33.110541 -10.930759,14.654425 -0.105104,0.645635 0.195193,0.390384 0.330325,0.300296 0.300295,0.165163 0.72071,0.135133 H 110.5413 c -11.158356,-3.8632 -12.997922,-9.87689 -9.45859,-17.131864 l -0.64885,0.02384 -0.658257,0.04247 -0.700725,0.0637 -0.594555,0.10617 -0.36098,0.233576 z"
       id="path1088"
       sodipodi:nodetypes="ccccccccccccccc" /><path
       style="fill:#f18c29;fill-opacity:1;stroke:#ffffff;stroke-width:0;stroke-linecap:round;paint-order:markers fill stroke"
       d="m 18.738445,34.769265 c -0.52852,-0.106584 -2.214076,-0.437468 -3.745678,-0.735299 -2.855336,-0.555239 -4.182126,-1.636167 -4.182126,-3.407154 0,-0.766318 0.302113,-0.836253 2.522483,-0.58392 6.638951,0.75448 15.255016,3.036225 15.255016,4.039901 0,0.75403 -7.070984,1.246841 -9.849695,0.686472 z"
       id="path1159"
       transform="translate(71.173264,28.726225)" /><path
       style="fill:#f18c29;fill-opacity:1;stroke:#ffffff;stroke-width:0;stroke-linecap:round;paint-order:markers fill stroke"
       d="m 75.194016,34.728172 c -2.982863,-0.535118 -1.319251,-1.608911 5.01868,-3.239347 3.308455,-0.851102 10.839901,-1.856687 11.201045,-1.495543 0.655455,0.655456 -1.049863,3.150972 -2.455771,3.593708 -4.022097,1.266602 -10.206591,1.779364 -13.763954,1.141182 z"
       id="path1161"
       transform="translate(71.173264,28.726225)" /><path
       style="fill:#f18c29;fill-opacity:1;stroke:#ffffff;stroke-width:0;stroke-linecap:round;paint-order:markers fill stroke"
       d="m 84.184903,47.749038 c -0.648624,-0.648625 -0.340423,-2.071342 0.5522,-2.549059 1.169552,-0.625926 2.638937,0.402742 2.396757,1.677891 -0.178163,0.938085 -2.265429,1.554696 -2.948957,0.871168 z"
       id="path1163"
       transform="translate(71.173264,28.726225)" /><path
       style="fill:#f18c29;fill-opacity:1;stroke:#ffffff;stroke-width:0;stroke-linecap:round;paint-order:markers fill stroke"
       d="m 15.18544,47.387484 c -0.649971,-0.783166 -0.265999,-2.037538 0.742123,-2.424391 0.901272,-0.34585 2.570646,0.513536 2.570646,1.323357 0,1.566318 -2.293884,2.328716 -3.312769,1.101034 z"
       id="path1165"
       transform="translate(71.173264,28.726225)" /></g><style
     type="text/css"
     id="style351">
	.st0{fill:none;stroke:#003e76;stroke-width:12;stroke-miterlimit:10;}
</style></svg>
