<svg
   width="1.8rem"
   viewBox="0 0 101.40346 57.769404"
   version="1.1"
   inkscape:version="1.2.1 (9c6d41e410, 2022-07-14)"
   sodipodi:docname="5.svg"
   xml:space="preserve"
   xmlns:inkscape="http://www.inkscape.org/namespaces/inkscape"
   xmlns:sodipodi="http://sodipodi.sourceforge.net/DTD/sodipodi-0.dtd"
   xmlns="http://www.w3.org/2000/svg"
   xmlns:svg="http://www.w3.org/2000/svg"><sodipodi:namedview
     id="namedview7"
     pagecolor="#ffffff"
     bordercolor="#000000"
     borderopacity="0.25"
     inkscape:showpageshadow="2"
     inkscape:pageopacity="0.0"
     inkscape:pagecheckerboard="true"
     inkscape:deskcolor="#d1d1d1"
     inkscape:document-units="mm"
     showgrid="false"
     inkscape:zoom="9.0600177"
     inkscape:cx="31.677642"
     inkscape:cy="42.328835"
     inkscape:window-width="1920"
     inkscape:window-height="1013"
     inkscape:window-x="-9"
     inkscape:window-y="-9"
     inkscape:window-maximized="1"
     inkscape:current-layer="layer1"
     inkscape:lockguides="true"
     shape-rendering="auto" /><defs
     id="defs2"><inkscape:path-effect
       effect="lattice2"
       gridpoint0="86.057487,55.380879"
       gridpoint1="109.25613,55.380879"
       gridpoint2="86.057487,81.418911"
       gridpoint3="109.25613,81.418911"
       gridpoint4="91.857147,55.380879"
       gridpoint5="103.45647,55.380879"
       gridpoint6="91.857147,81.418911"
       gridpoint7="103.45647,81.418911"
       gridpoint8x9="97.656808,55.380879"
       gridpoint10x11="97.656808,81.418911"
       gridpoint12="86.057487,61.890387"
       gridpoint13="109.25613,61.890387"
       gridpoint14="86.057487,74.909403"
       gridpoint15="109.25613,74.909403"
       gridpoint16="94.438388,63.439131"
       gridpoint17="103.45647,61.890387"
       gridpoint18="87.623913,77.284144"
       gridpoint19="103.45647,74.909403"
       gridpoint20x21="98.844179,60.754641"
       gridpoint22x23="97.656808,74.909403"
       gridpoint24x26="86.057487,68.399895"
       gridpoint25x27="109.25613,68.399895"
       gridpoint28x30="91.857147,68.399895"
       gridpoint29x31="103.45647,68.399895"
       gridpoint32x33x34x35="97.656808,68.399895"
       id="path-effect26484"
       is_visible="true"
       lpeversion="1"
       horizontal_mirror="false"
       vertical_mirror="false"
       perimetral="false"
       live_update="true" /><inkscape:path-effect
       effect="powerstroke"
       id="path-effect26472"
       is_visible="true"
       lpeversion="1"
       offset_points="20.5,0.5"
       not_jump="false"
       sort_points="true"
       interpolator_type="CentripetalCatmullRom"
       interpolator_beta="0.2"
       start_linecap_type="zerowidth"
       linejoin_type="round"
       miter_limit="4"
       scale_width="1"
       end_linecap_type="zerowidth" /><inkscape:path-effect
       effect="fill_between_many"
       id="path-effect26470"
       is_visible="true"
       lpeversion="1.2"
       linkedpaths=""
       method="bsplinespiro"
       join="true"
       close="true"
       autoreverse="true" /><inkscape:path-effect
       effect="fillet_chamfer"
       id="path-effect20074"
       is_visible="true"
       lpeversion="1"
       nodesatellites_param="F,0,0,1,0,0,0,1 @ F,0,0,1,0,0,0,1 @ F,0,0,1,0,0,0,1 @ F,0,0,1,0,0,0,1 @ F,0,0,1,0,3.9811584,0,1"
       unit="px"
       method="auto"
       mode="F"
       radius="0"
       chamfer_steps="1"
       flexible="false"
       use_knot_distance="true"
       apply_no_radius="true"
       apply_with_radius="true"
       only_selected="false"
       hide_knots="false" /><inkscape:path-effect
       effect="fillet_chamfer"
       id="path-effect19920"
       nodesatellites_param="IF,0,0,1,0,0,0,1 @ IF,0,0,1,0,0,0,1 @ IF,0,0,1,0,0,0,1 @ IF,0,0,1,0,0,0,1 @ IF,0,0,1,0,0,0,1 @ IF,0,0,1,0,1.6762796,0,1 @ IF,0,0,1,0,0.74029593,0,1 @ IF,0,0,1,0,0.55187532,0,1 @ IF,0,0,1,0,3.214674,0,1 @ IF,0,0,1,0,0,0,1 @ IF,0,0,1,0,0,0,1 @ IF,0,0,1,0,0,0,1 @ IF,0,0,1,0,0,0,1 @ IF,0,0,1,0,0,0,1 @ IF,0,0,1,0,0,0,1 @ IF,0,0,1,0,0,0,1 @ IF,0,0,1,0,0,0,1 @ IF,0,0,1,0,0,0,1 @ IF,0,0,1,0,0,0,1 @ IF,0,0,1,0,0,0,1 @ IF,0,0,1,0,0,0,1 @ IF,0,0,1,0,0,0,1 @ IF,0,0,1,0,0,0,1 @ IF,0,0,1,0,0,0,1 @ IF,0,0,1,0,0,0,1 @ IF,0,0,1,0,0,0,1 @ IF,0,0,1,0,0,0,1 | IF,0,0,1,0,0,0,1 @ IF,0,0,1,0,0,0,1 @ IF,0,0,1,0,0,0,1 @ IF,0,0,1,0,0.055591647,0,1 | IF,0,0,1,0,0,0,1 @ IF,0,0,1,0,0,0,1 @ IF,0,0,1,0,0,0,1"
       is_visible="true"
       lpeversion="1"
       unit="px"
       method="auto"
       mode="IF"
       radius="0"
       chamfer_steps="1"
       flexible="false"
       use_knot_distance="true"
       apply_no_radius="true"
       apply_with_radius="true"
       only_selected="false"
       hide_knots="false" /><inkscape:path-effect
       effect="fillet_chamfer"
       id="path-effect9452"
       is_visible="true"
       lpeversion="1"
       nodesatellites_param="F,0,0,1,0,0,0,1 @ F,0,0,1,0,0,0,1 @ F,0,0,1,0,13.319202,0,1 @ F,0,0,1,0,13.112702,0,1"
       unit="px"
       method="auto"
       mode="F"
       radius="0"
       chamfer_steps="1"
       flexible="false"
       use_knot_distance="true"
       apply_no_radius="true"
       apply_with_radius="true"
       only_selected="false"
       hide_knots="false" /><inkscape:path-effect
       effect="fillet_chamfer"
       id="path-effect7827"
       is_visible="true"
       lpeversion="1"
       nodesatellites_param="IF,0,0,1,0,24.366911,0,5 @ IF,0,0,1,0,0,0,5 @ IF,0,0,1,0,0,0,5 @ IF,0,0,1,0,0,0,5"
       unit="px"
       method="auto"
       mode="IF"
       radius="0"
       chamfer_steps="4"
       flexible="false"
       use_knot_distance="true"
       apply_no_radius="true"
       apply_with_radius="true"
       only_selected="false"
       hide_knots="false" /><inkscape:path-effect
       effect="fillet_chamfer"
       id="path-effect3413"
       nodesatellites_param="IF,0,0,1,0,25.281841,0,1 @ IF,0,0,1,0,0,0,1 @ IF,0,0,1,0,0,0,1 @ IF,0,0,1,0,0,0,1"
       is_visible="true"
       lpeversion="1"
       unit="px"
       method="auto"
       mode="IF"
       radius="0"
       chamfer_steps="1"
       flexible="false"
       use_knot_distance="true"
       apply_no_radius="true"
       apply_with_radius="true"
       only_selected="false"
       hide_knots="false" /><inkscape:path-effect
       effect="fillet_chamfer"
       id="path-effect1107"
       is_visible="true"
       lpeversion="1"
       nodesatellites_param="IF,0,0,1,0,0,0,1 @ IF,0,0,1,0,0,0,1 @ IF,0,0,1,0,0,0,1 @ IF,0,0,1,0,33.926521,0,1"
       unit="px"
       method="auto"
       mode="IF"
       radius="0"
       chamfer_steps="1"
       flexible="false"
       use_knot_distance="true"
       apply_no_radius="true"
       apply_with_radius="true"
       only_selected="false"
       hide_knots="false" /><inkscape:path-effect
       effect="fillet_chamfer"
       id="path-effect3304"
       is_visible="true"
       lpeversion="1"
       nodesatellites_param="IF,0,0,1,0,36.469021,0,1 @ IF,0,0,1,0,0,0,1 @ IF,0,0,1,0,0,0,1 @ IF,0,0,1,0,0,0,1"
       unit="px"
       method="auto"
       mode="IF"
       radius="0"
       chamfer_steps="1"
       flexible="false"
       use_knot_distance="true"
       apply_no_radius="true"
       apply_with_radius="true"
       only_selected="false"
       hide_knots="false" /><inkscape:path-effect
       effect="fillet_chamfer"
       id="path-effect2317"
       is_visible="true"
       lpeversion="1"
       nodesatellites_param="IF,0,0,1,0,8.2101927,0,1 @ IF,0,0,1,0,0,0,1 @ IF,0,0,1,0,0,0,1 @ IF,0,0,1,0,0,0,1 @ IF,0,0,1,0,0,0,1"
       unit="px"
       method="auto"
       mode="IF"
       radius="0"
       chamfer_steps="1"
       flexible="false"
       use_knot_distance="true"
       apply_no_radius="true"
       apply_with_radius="true"
       only_selected="false"
       hide_knots="false" /><linearGradient
       id="linearGradient16417"
       inkscape:swatch="solid"><stop
         style="stop-color:#ffffff;stop-opacity:1;"
         offset="0"
         id="stop16415" /></linearGradient><inkscape:path-effect
       effect="fillet_chamfer"
       id="path-effect14407"
       is_visible="true"
       lpeversion="1"
       nodesatellites_param="IF,0,0,1,0,25.679276,0,1 @ IF,0,0,1,0,0,0,1 @ IF,0,0,1,0,0,0,1 @ IF,0,0,1,0,0,0,1"
       unit="px"
       method="auto"
       mode="IF"
       radius="0"
       chamfer_steps="1"
       flexible="false"
       use_knot_distance="true"
       apply_no_radius="true"
       apply_with_radius="true"
       only_selected="false"
       hide_knots="false" /><linearGradient
       id="linearGradient3641"
       inkscape:swatch="solid"><stop
         style="stop-color:#f18c29;stop-opacity:1;"
         offset="0"
         id="stop3639" /></linearGradient><style
       id="style10022">.cls-1{fill:#78ba31;}.cls-2{fill:#434343;}</style><style
       id="style13374">.cls-1{fill:#78ba31;}.cls-2{fill:#434343;}</style><style
       id="style14139">.cls-1{fill:#78ba31;}.cls-2{fill:#434343;}</style><style
       id="style19329">.cls-1{fill:#454545;}</style><inkscape:path-effect
       effect="fill_between_many"
       method="bsplinespiro"
       linkedpaths="#path25742,0,1"
       id="path-effect26474"
       join="true"
       close="true"
       autoreverse="true" /></defs><g
     inkscape:label="Layer 1"
     inkscape:groupmode="layer"
     id="layer1"
     transform="translate(-71.173264,-28.726225)"><path
       style="fill:none;fill-opacity:1;stroke:#000000;stroke-width:3.01621455;stroke-linecap:square;stroke-linejoin:round;stroke-dasharray:none;stroke-opacity:1;paint-order:stroke markers fill"
       id="path20046"
       sodipodi:type="arc"
       sodipodi:cx="-65.937393"
       sodipodi:cy="-133.05586"
       sodipodi:rx="19.47201"
       sodipodi:ry="12.172555"
       sodipodi:start="0.20584544"
       sodipodi:end="6.2281349"
       sodipodi:open="true"
       sodipodi:arc-type="arc"
       d="m -46.876466,-130.56786 a 19.47201,12.172555 0 0 1 -21.790095,9.5644 19.47201,12.172555 0 0 1 -16.687521,-12.96931 19.47201,12.172555 0 0 1 19.614785,-11.25502 19.47201,12.172555 0 0 1 19.244415,11.50216"
       transform="matrix(-0.7642306,0.64494309,-0.74964236,-0.66184313,0,0)" /><path
       style="fill:#f18c29;fill-opacity:1;stroke:none;stroke-width:1.84904;stroke-linecap:square;stroke-linejoin:round;stroke-dasharray:none;stroke-opacity:1;paint-order:stroke markers fill"
       id="path20046-0"
       sodipodi:type="arc"
       sodipodi:cx="43.845577"
       sodipodi:cy="135.6205"
       sodipodi:rx="10.949162"
       sodipodi:ry="8.6010742"
       sodipodi:start="0.20584544"
       sodipodi:end="3.9450392"
       sodipodi:arc-type="slice"
       d="m 54.563586,137.37851 c -0.961102,3.61581 -4.753814,6.34581 -9.422992,6.78269 -4.669178,0.43688 -9.172089,-1.51691 -11.187481,-4.85421 -2.015393,-3.3373 -1.093185,-7.31281 2.291226,-9.87714 l 4.514318,3.67658 a 14.938514,14.938514 24.237621 0 0 7.015581,3.15846 z"
       transform="matrix(0.78960506,-0.61361539,0.82242415,0.56887478,0,0)"
       inkscape:path-effect="#path-effect20074" /><path
       style="fill:none;fill-opacity:1;stroke:#000000;stroke-width:3;stroke-linecap:square;stroke-linejoin:round;stroke-dasharray:none;stroke-opacity:1;paint-order:stroke markers fill"
       d="m 134.69066,57.053525 -27.01314,23.362721 v 0"
       id="path20048" /><path
       style="fill:none;fill-opacity:1;stroke:#000000;stroke-width:5.0000003;stroke-linecap:square;stroke-linejoin:round;stroke-dasharray:none;stroke-opacity:1;paint-order:stroke markers fill"
       d="m 107.12747,80.966287 10.59119,-8.984998 v 0"
       id="path20050" /><path
       inkscape:original-d="M 0,0"
       inkscape:path-effect="#path-effect26474"
       d="m 109.82102,54.025942 0.10325,1.49712 -0.0516,1.032496 -0.25813,1.342245 -0.72274,2.426365 -0.98088,1.806869 -1.03249,1.548744 -1.29062,1.651995 -1.65199,1.187371 -2.32312,1.238994 -3.407243,1.084121 -2.013368,0.103254 -3.458862,-0.154874 -2.529615,-0.671123 -2.477991,-1.187371 1.755243,0.154875 1.651995,0.258124 2.013367,-0.774372 1.703619,-0.412999 1.651993,-1.29062 1.548745,-1.342245 2.168247,-2.013369 2.11662,-2.219866 1.13575,-2.116617 0.72274,-1.342245 0.25812,-1.806867 0.36138,-1.600371 v -1.910117 l -0.2065,-2.323117 -0.0516,-1.238995 -0.0516,-1.084121 -0.2065,-0.980871 -0.36137,-0.980871 1.18737,0.619497 0.72275,0.825997 1.13574,1.445494 0.67112,1.032497 0.6195,0.980871 0.826,1.806869 0.413,1.445494 0.10325,0.980872 z"
       id="path26476"
       style="fill:#f18c29"
       class="UnoptimicedTransforms"
       transform="translate(-0.15487443,-0.36137368)" /><g
       id="g27275"
       transform="translate(1.1681361,-11.973395)"><ellipse
         style="opacity:1;fill:none;fill-opacity:1;fill-rule:nonzero;stroke:#000000;stroke-width:5;stroke-linecap:square;stroke-linejoin:round;stroke-dasharray:none;stroke-opacity:1;paint-order:stroke markers fill"
         id="path25734"
         cx="94.301178"
         cy="67.03183"
         rx="17.345936"
         ry="17.036188" /><path
         style="opacity:1;fill:#f18c29;fill-opacity:1;fill-rule:nonzero;stroke:none;stroke-width:1;stroke-linecap:square;stroke-linejoin:round;stroke-dasharray:none;stroke-opacity:1;paint-order:stroke markers fill"
         d="m 108.17457,66.028167 c 0.0379,0.456421 0.0937,1.470262 0.0937,1.470262 0.01,0.01006 0,0 0,0 0.0102,1.48e-4 0.002,-0.02973 0.002,-0.02973 -0.007,0.325858 -0.0519,0.998759 -0.0519,0.998759 0.01,0.01004 0,0 0,0 0.012,-0.0015 0.007,-0.03448 0.007,-0.03448 -0.0715,0.433869 -0.25477,1.32031 -0.25477,1.32031 0.01,0.01 0,0 0,0 0.0122,0.002 0.007,-0.02393 0.007,-0.02393 -0.22002,0.78078 -0.72359,2.390279 -0.72359,2.390279 0.01,0.0099 0,0 0,0 0.0185,-0.0056 0.0255,-0.04641 0.0255,-0.04641 -0.31298,0.59683 -1.0131,1.818176 -1.0131,1.818176 0.0102,0.0097 0,0 0,0 0.0146,0.0033 0.0133,-0.01936 0.0133,-0.01936 -0.34301,0.523999 -1.09334,1.5779 -1.09334,1.5779 0.0104,0.0096 0,0 0,0 0.0146,0.0045 0.0125,-0.01536 0.0125,-0.01536 -0.43391,0.557358 -1.34303,1.650128 -1.34303,1.650128 0.0315,-0.0054 0.0623,-0.04427 0.0623,-0.04427 -0.5724,0.423854 -1.72957,1.226465 -1.72957,1.226465 0.0112,0.0092 0,0 0,0 0.0215,0.0036 0.0311,-0.01663 0.0311,-0.01663 -0.8134,0.450511 -2.352921,1.250764 -2.352921,1.250764 0.01181,0.0088 0,0 0,0 0.0266,0.004 0.04442,-0.0143 0.04442,-0.0143 -1.168386,0.389484 -3.292545,1.025238 -3.292545,1.025238 0.01281,0.0083 0,0 0,0 0.03453,0.007 0.06519,-0.0037 0.06519,-0.0037 -0.660259,0.04681 -1.996311,0.105791 -1.996311,0.105791 0.01304,0.0081 0,0 0,0 0.02122,0.0084 0.02456,7.29e-4 0.02456,7.29e-4 -1.146548,-0.02623 -3.43451,-0.132854 -3.43451,-0.132854 0.03072,0.01247 0.05466,0.01212 0.05466,0.01212 -0.857129,-0.183979 -2.510231,-0.635051 -2.510231,-0.635051 0.01087,0.0093 0,0 0,0 -0.800613,-0.375524 -2.208759,-1.298381 -2.208759,-1.298381 -0.04876,0.303157 -0.178839,0.892726 -0.178839,0.892726 0.481953,0.118688 1.512447,0.291904 1.512447,0.291904 0.0102,0.0098 0,0 0,0 0.499304,0.121831 1.540137,0.310062 1.540137,0.310062 0.08385,0.01489 0.165267,0.0098 0.235709,-0.01442 0.570428,-0.183702 1.739437,-0.600876 1.739437,-0.600876 0.01162,0.0087 0,0 0,0 0.520768,-0.09681 1.580249,-0.339747 1.580249,-0.339747 0.06676,-0.01491 0.126896,-0.04256 0.176592,-0.08118 0.480086,-0.356308 1.55647,-1.188694 1.55647,-1.188694 0.0067,-0.005 0.01318,-0.0102 0.01954,-0.01552 0.511608,-0.410382 1.61754,-1.336135 1.61754,-1.336135 0.0047,-0.0039 0.0093,-0.0078 0.01392,-0.01178 0.401567,-0.332584 1.212649,-1.054795 1.212649,-1.054795 0.416063,-0.343394 1.25218,-1.089134 1.25218,-1.089134 0.0087,-0.0075 0.0171,-0.01531 0.02532,-0.02327 0.828767,-0.783302 2.48183,-2.43331 2.48183,-2.43331 0.0358,-0.03569 0.0671,-0.0752 0.0933,-0.117495 0.47759,-0.746257 1.36422,-2.255254 1.36422,-2.255254 0.28941,-0.465219 0.81598,-1.413227 0.81598,-1.413227 0.0306,-0.0542 0.0524,-0.112727 0.0646,-0.172952 0.13307,-0.605295 0.35629,-1.843086 0.35629,-1.843086 0.009,0.01015 0,0 0,0 0.14909,-0.533673 0.40019,-1.619071 0.40019,-1.619071 0.009,-0.03683 0.0138,-0.07448 0.0151,-0.112262 0.0319,-0.640206 0.0481,-1.940496 0.0481,-1.940496 1.8e-4,-0.01495 -2.2e-4,-0.0299 -0.001,-0.04482 -0.0424,-0.769504 -0.19768,-2.327064 -0.19768,-2.327064 0.009,0.01018 0,0 0,0 -0.0181,-0.400279 -0.0986,-1.21952 -0.0986,-1.21952 -0.0367,-0.360912 -0.0782,-0.717313 -0.12513,-1.069253 -0.003,-0.02606 -0.009,-0.052 -0.0163,-0.07759 -0.0827,-0.311757 -0.29654,-0.955293 -0.29654,-0.955293 -0.008,-0.02296 -0.017,-0.04555 -0.0278,-0.06759 -0.14587,-0.308494 -0.49627,-0.940905 -0.49627,-0.940905 -0.18378,0.204866 -0.57354,0.582599 -0.57354,0.582599 0.40226,0.196034 1.13579,0.562832 1.13579,0.562832 0.0106,0.0098 0,0 0,0 -0.0116,-0.01319 -0.0668,-0.06896 -0.0668,-0.06896 0.2714,0.277677 0.74822,0.803658 0.74822,0.803658 0.01,0.01 0,0 0,0 0.007,0.0065 -0.008,-0.01031 -0.008,-0.01031 0.39814,0.487685 1.09927,1.431914 1.09927,1.431914 0.009,0.01017 0,0 0,0 0.22208,0.356565 0.61672,1.026131 0.61672,1.026131 0.008,0.0084 -0.003,-0.0056 -0.003,-0.0056 0.198,0.338612 0.55236,0.967707 0.55236,0.967707 0.009,0.01027 0,0 0,0 0.005,-7.3e-5 -0.0129,-0.03101 -0.0129,-0.03101 0.26347,0.623504 0.74444,1.794214 0.74444,1.794214 0.009,0.01023 0,0 0,0 0.006,-0.0019 -0.01,-0.03652 -0.01,-0.03652 0.13683,0.498026 0.3722,1.41351 0.3722,1.41351 0.0411,0.339577 0.0907,0.940689 0.0907,0.940689 0.002,0.01705 0.004,0.03401 0.007,0.05082 0.0798,0.368125 0.19491,0.984645 0.19491,0.984645 0,-5.7e-5 -0.009,-0.06869 -0.009,-0.06875 z m 0.96784,-0.131873 c -0.0508,-0.280169 -0.19932,-0.956349 -0.19932,-0.956349 0.01,0.01004 0,0 0,0 -0.0215,-0.292345 -0.0988,-0.95599 -0.0988,-0.95599 -0.003,-0.02879 -0.008,-0.05727 -0.0162,-0.08513 -0.12026,-0.455357 -0.40074,-1.449807 -0.40074,-1.449807 -0.007,-0.02422 -0.015,-0.04791 -0.025,-0.07088 -0.24798,-0.580099 -0.7833,-1.821789 -0.7833,-1.821789 -0.009,-0.02059 -0.0188,-0.04056 -0.0301,-0.05978 -0.18061,-0.314427 -0.58113,-0.993818 -0.58113,-0.993818 -0.20632,-0.342187 -0.42237,-0.698039 -0.64054,-1.048973 -0.008,-0.01261 -0.0162,-0.02487 -0.025,-0.03673 -0.34855,-0.470662 -1.12551,-1.447064 -1.12551,-1.447064 -0.006,-0.0069 -0.0114,-0.01357 -0.0174,-0.02014 -0.23502,-0.260218 -0.76773,-0.810413 -0.76773,-0.810413 -0.045,-0.04533 -0.0973,-0.08289 -0.1544,-0.11086 -0.39659,-0.190094 -1.26716,-0.594233 -1.26716,-0.594233 -0.20173,-0.09038 -0.42091,-0.06428 -0.5453,0.0635 -0.12475,0.128144 -0.13087,0.333064 -0.0231,0.517136 0.18727,0.309411 0.495,0.907087 0.495,0.907087 0.0109,0.0097 0,0 0,0 0.007,-0.0018 -0.0123,-0.0344 -0.0123,-0.0344 0.11907,0.311841 0.30332,0.914911 0.30332,0.914911 0.0625,0.348195 0.13813,1.025629 0.13813,1.025629 0.0448,0.4053 0.0816,0.815093 0.11149,1.229125 5.6e-4,0.0078 0.001,0.01566 0.002,0.02348 0.0961,0.778766 0.19515,2.323718 0.19515,2.323718 0.009,0.01022 0,0 0,0 0.009,0.0027 4e-4,-0.02255 4e-4,-0.02255 -0.002,0.637884 -0.0628,1.894532 -0.0628,1.894532 0.009,0.0102 0,0 0,0 -0.12075,0.538106 -0.41208,1.596991 -0.41208,1.596991 -0.004,0.01354 -0.007,0.02718 -0.01,0.0409 -0.10926,0.605231 -0.373,1.787713 -0.373,1.787713 0.009,0.01 0,0 0,0 -0.24692,0.454687 -0.79051,1.345049 -0.79051,1.345049 0.009,0.01009 -4.1e-4,6.83e-4 -4.1e-4,6.83e-4 -0.43189,0.745798 -1.36291,2.211369 -1.36291,2.211369 0.0274,-0.0085 0.0546,-0.05428 0.0546,-0.05428 -0.825186,0.840237 -2.504767,2.44257 -2.504767,2.44257 -0.420641,0.383004 -1.258872,1.087803 -1.258872,1.087803 -0.411657,0.372778 -1.228773,1.058681 -1.228773,1.058681 0.01023,0.0091 0,0 0,0 0.01263,0.0072 0.0072,-0.0058 0.0072,-0.0058 -0.574241,0.483973 -1.645708,1.34262 -1.645708,1.34262 0.01064,0.009 0,0 0,0 0.01406,0.0064 0.01025,-0.0076 0.01025,-0.0076 -0.540414,0.419646 -1.523773,1.144706 -1.523773,1.144706 0.01104,0.0089 0,0 0,0 -0.51764,0.128129 -1.523233,0.32707 -1.523233,0.32707 -0.01948,0.004 -0.03842,0.0091 -0.05672,0.01546 -0.57243,0.210887 -1.663278,0.563488 -1.663278,0.563488 0.01061,0.0094 0,0 0,0 -0.462006,-0.0879 -1.376802,-0.323792 -1.376802,-0.323792 -0.0096,-0.0026 -0.01927,-0.0049 -0.02889,-0.0068 -0.495375,-0.09131 -1.449172,-0.352835 -1.449172,-0.352835 -0.187644,-0.05523 -0.354764,0.0603 -0.404535,0.285549 -0.04982,0.225462 0.03625,0.484935 0.218718,0.612595 0.6958,0.491879 2.33805,1.267063 2.33805,1.267063 0.02946,0.01271 0.05961,0.02304 0.09004,0.0309 0.842787,0.223605 2.658843,0.594632 2.658843,0.594632 0.03759,0.0075 0.07483,0.01192 0.111005,0.01328 1.182863,0.05209 3.513436,0.12406 3.513436,0.12406 0.01626,5.63e-4 0.03225,5.23e-4 0.04792,-1.23e-4 0.672373,-0.01929 1.978632,-0.0837 1.978632,-0.0837 0.04219,-0.0018 0.08209,-0.0082 0.118811,-0.01882 0.991433,-0.276436 3.215323,-0.971323 3.215323,-0.971323 0.0285,-0.0089 0.0558,-0.02025 0.0814,-0.03378 0.73546,-0.374013 2.32114,-1.231964 2.32114,-1.231964 0.0203,-0.0108 0.0397,-0.02282 0.0582,-0.03599 0.57585,-0.393235 1.72479,-1.226919 1.72479,-1.226919 0.0407,-0.02897 0.077,-0.06306 0.10772,-0.101257 0.46918,-0.560254 1.36682,-1.69536 1.36682,-1.69536 0.008,-0.01015 0.016,-0.02058 0.0233,-0.03126 0.38303,-0.53016 1.0847,-1.581981 1.0847,-1.581981 0.009,-0.0128 0.0168,-0.02595 0.0243,-0.03943 0.35917,-0.617033 1.0059,-1.825827 1.0059,-1.825827 0.0167,-0.03066 0.0302,-0.06292 0.0403,-0.09627 0.26122,-0.824173 0.72565,-2.430554 0.72565,-2.430554 0.005,-0.0159 0.009,-0.03203 0.0118,-0.04832 0.0989,-0.453423 0.25756,-1.342281 0.25756,-1.342281 0.004,-0.02293 0.007,-0.04614 0.008,-0.06947 0.0281,-0.35213 0.0516,-1.03249 0.0516,-1.03249 9.9e-4,-0.01978 8e-4,-0.0396 -5.6e-4,-0.05936 -0.0275,-0.533907 -0.10305,-1.497182 -0.10305,-1.497182 1e-5,1.07e-4 -0.01,-0.06869 -0.009,-0.06858 z"
         id="path25742"
         sodipodi:nodetypes="cccccccccccccccccccccccccccccccccccccccccc"
         inkscape:path-effect="#path-effect26470;#path-effect26472;#path-effect26484"
         inkscape:original-d="m 108.65288,65.999337 0.10325,1.49712 -0.0516,1.032496 -0.25813,1.342245 -0.72274,2.426365 -0.98088,1.806869 -1.03249,1.548744 -1.29062,1.651995 -1.65199,1.187371 -2.32312,1.238994 -3.407239,1.084121 -2.013368,0.103254 -3.458862,-0.154874 -2.529615,-0.671123 -2.477991,-1.187371 1.755243,0.154875 1.651995,0.258124 2.013367,-0.774372 1.703619,-0.412999 1.651993,-1.29062 1.548745,-1.342245 2.168242,-2.013369 2.116621,-2.219866 1.13575,-2.116617 0.72274,-1.342245 0.25812,-1.806867 0.36138,-1.600371 v -1.910117 l -0.2065,-2.323117 -0.0516,-1.238995 -0.0516,-1.084121 -0.2065,-0.980871 -0.36137,-0.980871 1.18737,0.619497 0.72275,0.825997 1.13574,1.445494 0.67112,1.032497 0.6195,0.980871 0.826,1.806869 0.413,1.445494 0.10325,0.980872 z"
         class="UnoptimicedTransforms"
         inkscape:linked-fill="path26476"
         transform="translate(-0.15487443,-0.36137368)" /></g><ellipse
       style="opacity:1;fill:none;fill-opacity:1;fill-rule:nonzero;stroke:#000000;stroke-width:1;stroke-linecap:square;stroke-linejoin:round;stroke-dasharray:none;stroke-opacity:1;paint-order:stroke markers fill"
       id="path26486"
       cx="151.55563"
       cy="75.743698"
       rx="8.8340292"
       ry="8.6150036" /><path
       style="opacity:1;fill:none;fill-opacity:1;fill-rule:nonzero;stroke:#000000;stroke-width:1;stroke-linecap:square;stroke-linejoin:round;stroke-dasharray:none;stroke-opacity:1;paint-order:stroke markers fill"
       d="m 152.24921,83.938908 0.073,-3.413148 4.32575,-4.763806 3.55917,-0.383294"
       id="path26488" /><path
       style="fill:none;fill-opacity:1;fill-rule:nonzero;stroke:#000000;stroke-width:1;stroke-linecap:square;stroke-linejoin:round;stroke-dasharray:none;stroke-opacity:1;paint-order:stroke markers fill"
       d="m 151.6451,67.778444 -0.073,3.41314 -4.32575,4.76381 -3.55917,0.38329"
       id="path26488-2" /></g></svg>
